<?xml version="1.0" encoding="UTF-8" standalone="no"?>
<!-- Created with Inkscape (http://www.inkscape.org/) -->

<svg
   version="1.1"
   id="svg1"
   width="529.1333"
   height="163.29933"
   viewBox="0 0 529.1333 163.29933"
   sodipodi:docname="sum.svg"
   inkscape:version="1.3.2 (091e20ef0f, 2023-11-25, custom)"
   xmlns:inkscape="http://www.inkscape.org/namespaces/inkscape"
   xmlns:sodipodi="http://sodipodi.sourceforge.net/DTD/sodipodi-0.dtd"
   xmlns="http://www.w3.org/2000/svg"
   xmlns:svg="http://www.w3.org/2000/svg">
  <defs
     id="defs1" />
  <sodipodi:namedview
     id="namedview1"
     pagecolor="#ffffff"
     bordercolor="#999999"
     borderopacity="1"
     inkscape:showpageshadow="0"
     inkscape:pageopacity="0"
     inkscape:pagecheckerboard="0"
     inkscape:deskcolor="#d1d1d1"
     inkscape:zoom="3.5780732"
     inkscape:cx="145.18987"
     inkscape:cy="51.843545"
     inkscape:window-width="1920"
     inkscape:window-height="1125"
     inkscape:window-x="0"
     inkscape:window-y="0"
     inkscape:window-maximized="1"
     inkscape:current-layer="g1">
    <inkscape:page
       x="0"
       y="0"
       inkscape:label="0"
       id="page1"
       width="529.1333"
       height="163.29933"
       margin="0"
       bleed="0" />
  </sodipodi:namedview>
  <g
     id="g1"
     inkscape:groupmode="layer"
     inkscape:label="0"
     transform="translate(-37.794667,-81.738)">
    <path
       id="path4"
       d="M 0,0 H 396.85"
       style="fill:none;stroke:#000000;stroke-width:0.797;stroke-linecap:butt;stroke-linejoin:miter;stroke-miterlimit:10;stroke-dasharray:none;stroke-opacity:1"
       transform="matrix(1.3333333,0,0,-1.3333333,37.794667,82.269333)" />
    <text
       id="text4"
       xml:space="preserve"
       transform="matrix(1.3333333,0,0,1.3333333,37.794667,95.792)"><tspan
         style="font-variant:normal;font-weight:700;font-size:10.9091px;font-family:'PT Sans';writing-mode:lr-tb;fill:#000000;fill-opacity:1;fill-rule:nonzero;stroke:none"
         x="0 6.6000056 9.8072805 15.654558 21.512745 25.341839 28.276386 32.083664 38.029121"
         y="0"
         sodipodi:role="line"
         id="tspan4">Algorithm</tspan><tspan
         style="font-variant:normal;font-weight:normal;font-size:10.9091px;font-family:'PT Sans';writing-mode:lr-tb;fill:#000000;fill-opacity:1;fill-rule:nonzero;stroke:none"
         x="49.570999 54.567368 60.109192 63.414646 66.763741 70.691017 74.269203 80.116478 84.043755 87.752853 90.676491 96.534676 102.50195 109.11287 114.98196 120.82924 126.70924 132.60016 135.78561 141.32744 145.25471 150.66563 156.6329 162.502 166.42928 171.84019 177.70929 186.49112 191.90202 195.08748 200.94568 206.79295 210.50204 213.42567 217.12387 223.09114"
         y="0"
         sodipodi:role="line"
         id="tspan5">Left-to-rightdouble-and-addalgorithm</tspan></text>
    <path
       id="path5"
       d="M 0,0 H 396.85"
       style="fill:none;stroke:#000000;stroke-width:0.398;stroke-linecap:butt;stroke-linejoin:miter;stroke-miterlimit:10;stroke-dasharray:none;stroke-opacity:1"
       transform="matrix(1.3333333,0,0,-1.3333333,37.794667,101.79733)" />
    <text
       id="text5"
       xml:space="preserve"
       transform="matrix(1.3333333,0,0,1.3333333,44.601333,123.316)"><tspan
         style="font-variant:normal;font-weight:normal;font-size:8.9664px;font-family:'PT Sans';writing-mode:lr-tb;fill:#000000;fill-opacity:1;fill-rule:nonzero;stroke:none"
         x="0 4.8866882"
         y="0"
         sodipodi:role="line"
         id="tspan6">1:</tspan></text>
    <text
       id="text6"
       xml:space="preserve"
       transform="matrix(1.3333333,0,0,1.3333333,60.377333,123.316)"><tspan
         style="font-variant:normal;font-weight:700;font-size:9.9626px;font-family:'PT Sans';writing-mode:lr-tb;fill:#000000;fill-opacity:1;fill-rule:nonzero;stroke:none"
         x="0 2.8393409 8.2689581 13.648762 19.00864 22.485588"
         y="0"
         sodipodi:role="line"
         id="tspan7">Input:</tspan><tspan
         style="font-style:italic;font-variant:normal;font-weight:normal;font-size:9.9626px;font-family:'PT Sans';writing-mode:lr-tb;fill:#000000;fill-opacity:1;fill-rule:nonzero;stroke:none"
         x="27.826"
         y="0"
         id="tspan8">P</tspan><tspan
         style="font-style:italic;font-variant:normal;font-weight:normal;font-size:9.9626px;font-family:'PT Sans';writing-mode:lr-tb;fill:#000000;fill-opacity:1;fill-rule:nonzero;stroke:none"
         x="28.047001"
         y="-0.27599999"
         id="tspan9">P</tspan><tspan
         style="font-style:italic;font-variant:normal;font-weight:normal;font-size:9.9626px;font-family:'PT Sans';writing-mode:lr-tb;fill:#000000;fill-opacity:1;fill-rule:nonzero;stroke:none"
         x="28.268999"
         y="0"
         id="tspan10">P</tspan><tspan
         style="font-variant:normal;font-weight:normal;font-size:9.9626px;font-family:'PT Sans';writing-mode:lr-tb;fill:#000000;fill-opacity:1;fill-rule:nonzero;stroke:none"
         x="33.908001"
         y="0"
         id="tspan11">,</tspan><tspan
         style="font-style:italic;font-variant:normal;font-weight:normal;font-size:9.9626px;font-family:'PT Sans';writing-mode:lr-tb;fill:#000000;fill-opacity:1;fill-rule:nonzero;stroke:none"
         x="38.808998"
         y="0"
         id="tspan12">k</tspan><tspan
         style="font-variant:normal;font-weight:normal;font-size:9.9626px;font-family:'PT Sans';writing-mode:lr-tb;fill:#000000;fill-opacity:1;fill-rule:nonzero;stroke:none"
         x="46.389 54.189716"
         y="0"
         sodipodi:role="line"
         id="tspan13">=(</tspan><tspan
         style="font-style:italic;font-variant:normal;font-weight:normal;font-size:9.9626px;font-family:'PT Sans';writing-mode:lr-tb;fill:#000000;fill-opacity:1;fill-rule:nonzero;stroke:none"
         x="56.977001"
         y="0"
         id="tspan14">k</tspan><tspan
         style="font-style:italic;font-variant:normal;font-weight:normal;font-size:6.9738px;font-family:'PT Sans';writing-mode:lr-tb;fill:#000000;fill-opacity:1;fill-rule:nonzero;stroke:none"
         x="61.450001"
         y="1.52"
         id="tspan15">n</tspan></text>
    <path
       id="path15"
       d="m 5.4609844,-1.7452813 c 0,-0.1757812 -0.1523438,-0.1757812 -0.2578125,-0.1757812 H 1.0078594 c -0.09375,0 -0.25781252,0 -0.25781252,0.1757812 0,0.1757813 0.17578125,0.1757813 0.25781252,0.1757813 h 4.1953125 c 0.09375,0 0.2578125,0 0.2578125,-0.1757813 z m 0,0"
       style="fill:#000000;fill-opacity:1;fill-rule:nonzero;stroke:none"
       aria-label="−"
       transform="matrix(1.3333333,0,0,1.3333333,147.164,125.34267)" />
    <text
       id="text15"
       xml:space="preserve"
       transform="matrix(1.3333333,0,0,1.3333333,155.46667,125.34267)"><tspan
         style="font-variant:normal;font-weight:normal;font-size:6.9738px;font-family:'PT Sans';writing-mode:lr-tb;fill:#000000;fill-opacity:1;fill-rule:nonzero;stroke:none"
         x="0"
         y="0"
         id="tspan16">1</tspan></text>
    <path
       id="path16"
       d="m 2.0277578,-0.01141406 c 0,-0.65625 -0.2578125,-1.04296874 -0.6445312,-1.04296874 -0.328125,0 -0.52734379,0.24609374 -0.52734379,0.52734374 0,0.26953125 0.19921879,0.5273437475 0.52734379,0.5273437475 0.1171875,0 0.2460937,-0.0351562475 0.3515625,-0.1289062475 0.023437,-0.0234375 0.046875,-0.0351563 0.046875,-0.0351563 0,0 0.023437,0.0117188 0.023437,0.15234375 0,0.73828125 -0.3515625,1.33593741 -0.6796875,1.66406241 -0.1054688,0.1054688 -0.1054688,0.1289063 -0.1054688,0.1640625 0,0.070312 0.046875,0.1054688 0.09375,0.1054688 0.1171875,0 0.9140625,-0.7617188 0.914063,-1.93359366 z m 0,0"
       style="fill:#000000;fill-opacity:1;fill-rule:nonzero;stroke:none"
       aria-label=","
       transform="matrix(1.3333333,0,0,1.3333333,161.19867,123.316)" />
    <text
       id="text16"
       xml:space="preserve"
       transform="matrix(1.3333333,0,0,1.3333333,167.10133,123.316)"><tspan
         style="font-style:italic;font-variant:normal;font-weight:normal;font-size:9.9626px;font-family:'PT Sans';writing-mode:lr-tb;fill:#000000;fill-opacity:1;fill-rule:nonzero;stroke:none"
         x="0"
         y="0"
         id="tspan17">k</tspan><tspan
         style="font-style:italic;font-variant:normal;font-weight:normal;font-size:6.9738px;font-family:'PT Sans';writing-mode:lr-tb;fill:#000000;fill-opacity:1;fill-rule:nonzero;stroke:none"
         x="4.474"
         y="1.52"
         id="tspan18">n</tspan></text>
    <path
       id="path18"
       d="m 5.4623438,-1.7452813 c 0,-0.1757812 -0.1523438,-0.1757812 -0.2578125,-0.1757812 H 1.0092188 c -0.09375,0 -0.25781255,0 -0.25781255,0.1757812 0,0.1757813 0.17578125,0.1757813 0.25781255,0.1757813 h 4.1953125 c 0.09375,0 0.2578125,0 0.2578125,-0.1757813 z m 0,0"
       style="fill:#000000;fill-opacity:1;fill-rule:nonzero;stroke:none"
       aria-label="−"
       transform="matrix(1.3333333,0,0,1.3333333,177.92,125.34267)" />
    <text
       id="text18"
       xml:space="preserve"
       transform="matrix(1.3333333,0,0,1.3333333,186.22267,125.34267)"><tspan
         style="font-variant:normal;font-weight:normal;font-size:6.9738px;font-family:'PT Sans';writing-mode:lr-tb;fill:#000000;fill-opacity:1;fill-rule:nonzero;stroke:none"
         x="0"
         y="0"
         id="tspan19">2</tspan></text>
    <path
       id="path19"
       d="m 2.0261875,-0.01141406 c 0,-0.65625 -0.2578125,-1.04296874 -0.6445312,-1.04296874 -0.328125,0 -0.5273438,0.24609374 -0.5273438,0.52734374 0,0.26953125 0.1992188,0.5273437475 0.5273438,0.5273437475 0.1171875,0 0.2460937,-0.0351562475 0.3515625,-0.1289062475 0.023437,-0.0234375 0.046875,-0.0351563 0.046875,-0.0351563 0,0 0.023437,0.0117188 0.023437,0.15234375 0,0.73828125 -0.3515625,1.33593741 -0.6796875,1.66406241 C 1.018375,1.7581172 1.018375,1.7815547 1.018375,1.8167109 c 0,0.070312 0.046875,0.1054688 0.09375,0.1054688 0.1171875,0 0.9140625,-0.7617188 0.9140625,-1.93359376 z m 4.3154297,-0.515625 c 0,-0.29296875 -0.234375,-0.52734374 -0.5273438,-0.52734374 -0.28125,0 -0.5273437,0.23437499 -0.5273437,0.52734374 0,0.29296875 0.2460937,0.5273437475 0.5273437,0.5273437475 0.2929688,0 0.5273438,-0.2343749975 0.5273438,-0.5273437475 z m 4.4208988,0 c 0,-0.29296875 -0.234375,-0.52734374 -0.527344,-0.52734374 -0.2812501,0 -0.5273439,0.23437499 -0.5273439,0.52734374 0,0.29296875 0.2460938,0.5273437475 0.5273439,0.5273437475 0.292969,0 0.527344,-0.2343749975 0.527344,-0.5273437475 z m 4.432617,0 c 0,-0.29296875 -0.234375,-0.52734374 -0.527344,-0.52734374 -0.28125,0 -0.527344,0.23437499 -0.527344,0.52734374 0,0.29296875 0.246094,0.5273437475 0.527344,0.5273437475 0.292969,0 0.527344,-0.2343749975 0.527344,-0.5273437475 z m 4.546875,0.515625 c 0,-0.65625 -0.257813,-1.04296874 -0.644531,-1.04296874 -0.328125,0 -0.527344,0.24609374 -0.527344,0.52734374 0,0.26953125 0.199219,0.5273437475 0.527344,0.5273437475 0.117187,0 0.246093,-0.0351562475 0.351562,-0.1289062475 0.02344,-0.0234375 0.04687,-0.0351563 0.04687,-0.0351563 0,0 0.02344,0.0117188 0.02344,0.15234375 0,0.73828125 -0.351563,1.33593741 -0.679688,1.66406241 -0.105469,0.1054688 -0.105469,0.1289063 -0.105469,0.1640625 0,0.070312 0.04687,0.1054688 0.09375,0.1054688 0.117188,0 0.914063,-0.7617188 0.914063,-1.93359371 z m 0,0"
       style="fill:#000000;fill-opacity:1;fill-rule:nonzero;stroke:none"
       aria-label=",...,"
       transform="matrix(1.3333333,0,0,1.3333333,191.95467,123.316)" />
    <text
       id="text19"
       xml:space="preserve"
       transform="matrix(1.3333333,0,0,1.3333333,221.47333,123.316)"><tspan
         style="font-style:italic;font-variant:normal;font-weight:normal;font-size:9.9626px;font-family:'PT Sans';writing-mode:lr-tb;fill:#000000;fill-opacity:1;fill-rule:nonzero;stroke:none"
         x="0"
         y="0"
         id="tspan20">k</tspan><tspan
         style="font-variant:normal;font-weight:normal;font-size:6.9738px;font-family:'PT Sans';writing-mode:lr-tb;fill:#000000;fill-opacity:1;fill-rule:nonzero;stroke:none"
         x="4.473"
         y="1.52"
         id="tspan21">0</tspan><tspan
         style="font-variant:normal;font-weight:normal;font-size:9.9626px;font-family:'PT Sans';writing-mode:lr-tb;fill:#000000;fill-opacity:1;fill-rule:nonzero;stroke:none"
         x="8.7720003"
         y="0"
         id="tspan22">)</tspan><tspan
         style="font-variant:normal;font-weight:normal;font-size:6.9738px;font-family:'PT Sans';writing-mode:lr-tb;fill:#000000;fill-opacity:1;fill-rule:nonzero;stroke:none"
         x="11.561"
         y="1.52"
         id="tspan23">2</tspan></text>
    <text
       id="text23"
       xml:space="preserve"
       transform="matrix(1.3333333,0,0,1.3333333,44.601333,139.25733)"><tspan
         style="font-variant:normal;font-weight:normal;font-size:8.9664px;font-family:'PT Sans';writing-mode:lr-tb;fill:#000000;fill-opacity:1;fill-rule:nonzero;stroke:none"
         x="0 4.8866882"
         y="0"
         sodipodi:role="line"
         id="tspan24">2:</tspan></text>
    <text
       id="text24"
       xml:space="preserve"
       transform="matrix(1.3333333,0,0,1.3333333,60.377333,139.25733)"><tspan
         style="font-variant:normal;font-weight:700;font-size:9.9626px;font-family:'PT Sans';writing-mode:lr-tb;fill:#000000;fill-opacity:1;fill-rule:nonzero;stroke:none"
         x="0 6.674942 12.034821 15.511768 20.891573 26.251451 29.728399"
         y="0"
         sodipodi:role="line"
         id="tspan25">Output:</tspan><tspan
         style="font-style:italic;font-variant:normal;font-weight:normal;font-size:9.9626px;font-family:'PT Sans';writing-mode:lr-tb;fill:#000000;fill-opacity:1;fill-rule:nonzero;stroke:none"
         x="35.069"
         y="0"
         id="tspan26">Q</tspan><tspan
         style="font-style:italic;font-variant:normal;font-weight:normal;font-size:9.9626px;font-family:'PT Sans';writing-mode:lr-tb;fill:#000000;fill-opacity:1;fill-rule:nonzero;stroke:none"
         x="35.290001"
         y="-0.27700001"
         id="tspan27">Q</tspan><tspan
         style="font-style:italic;font-variant:normal;font-weight:normal;font-size:9.9626px;font-family:'PT Sans';writing-mode:lr-tb;fill:#000000;fill-opacity:1;fill-rule:nonzero;stroke:none"
         x="35.512001"
         y="0"
         id="tspan28">Q</tspan><tspan
         style="font-variant:normal;font-weight:normal;font-size:9.9626px;font-family:'PT Sans';writing-mode:lr-tb;fill:#000000;fill-opacity:1;fill-rule:nonzero;stroke:none"
         x="44.764999 52.565716"
         y="0"
         sodipodi:role="line"
         id="tspan29">=[</tspan><tspan
         style="font-style:italic;font-variant:normal;font-weight:normal;font-size:9.9626px;font-family:'PT Sans';writing-mode:lr-tb;fill:#000000;fill-opacity:1;fill-rule:nonzero;stroke:none"
         x="55.591999"
         y="0"
         id="tspan30">k</tspan><tspan
         style="font-variant:normal;font-weight:normal;font-size:9.9626px;font-family:'PT Sans';writing-mode:lr-tb;fill:#000000;fill-opacity:1;fill-rule:nonzero;stroke:none"
         x="60.403999"
         y="0"
         id="tspan31">]</tspan><tspan
         style="font-style:italic;font-variant:normal;font-weight:normal;font-size:9.9626px;font-family:'PT Sans';writing-mode:lr-tb;fill:#000000;fill-opacity:1;fill-rule:nonzero;stroke:none"
         x="62.990002"
         y="0"
         id="tspan32">P</tspan><tspan
         style="font-style:italic;font-variant:normal;font-weight:normal;font-size:9.9626px;font-family:'PT Sans';writing-mode:lr-tb;fill:#000000;fill-opacity:1;fill-rule:nonzero;stroke:none"
         x="63.210999"
         y="-0.27700001"
         id="tspan33">P</tspan><tspan
         style="font-style:italic;font-variant:normal;font-weight:normal;font-size:9.9626px;font-family:'PT Sans';writing-mode:lr-tb;fill:#000000;fill-opacity:1;fill-rule:nonzero;stroke:none"
         x="63.431999"
         y="0"
         id="tspan34">P</tspan></text>
    <text
       id="text34"
       xml:space="preserve"
       transform="matrix(1.3333333,0,0,1.3333333,44.601333,155.19733)"><tspan
         style="font-variant:normal;font-weight:normal;font-size:8.9664px;font-family:'PT Sans';writing-mode:lr-tb;fill:#000000;fill-opacity:1;fill-rule:nonzero;stroke:none"
         x="0 4.8866882"
         y="0"
         sodipodi:role="line"
         id="tspan35">3:</tspan></text>
    <text
       id="text35"
       xml:space="preserve"
       transform="matrix(1.3333333,0,0,1.3333333,59.786667,155.19733)"><tspan
         style="font-style:italic;font-variant:normal;font-weight:normal;font-size:9.9626px;font-family:'PT Sans';writing-mode:lr-tb;fill:#000000;fill-opacity:1;fill-rule:nonzero;stroke:none"
         x="0"
         y="0"
         id="tspan36">R</tspan><tspan
         style="font-style:italic;font-variant:normal;font-weight:normal;font-size:9.9626px;font-family:'PT Sans';writing-mode:lr-tb;fill:#000000;fill-opacity:1;fill-rule:nonzero;stroke:none"
         x="0.222"
         y="-0.27700001"
         id="tspan37">R</tspan><tspan
         style="font-style:italic;font-variant:normal;font-weight:normal;font-size:9.9626px;font-family:'PT Sans';writing-mode:lr-tb;fill:#000000;fill-opacity:1;fill-rule:nonzero;stroke:none"
         x="0.44299999"
         y="0"
         id="tspan38">R</tspan><tspan
         style="font-variant:normal;font-weight:normal;font-size:6.9738px;font-family:'PT Sans';writing-mode:lr-tb;fill:#000000;fill-opacity:1;fill-rule:nonzero;stroke:none"
         x="6.1020002"
         y="1.52"
         id="tspan39">0</tspan></text>
    <path
       id="path39"
       d="m 9.39825,-2.4946797 c 0,-0.09375 -0.070312,-0.1992187 -0.2109375,-0.1992187 h -7.546875 c 0.75,-0.5273438 1.265625,-1.3476563 1.4296875,-2.2617188 0,-0.082031 -0.046875,-0.1289062 -0.1171875,-0.1289062 H 2.7771562 c -0.046875,0 -0.09375,0.035156 -0.1054687,0.082031 -0.1875,1.1132813 -0.9726563,2.0390625 -2.0390625,2.4140625 -0.046875,0.011719 -0.0820313,0.046875 -0.0820313,0.09375 0,0.058594 0.0351563,0.09375 0.0820313,0.1054688 1.0664062,0.375 1.8515625,1.2890625 2.0390625,2.41406246 0.011719,0.046875 0.058594,0.08203125 0.1054687,0.08203125 h 0.1757813 c 0.070312,0 0.1171875,-0.046875 0.1171875,-0.12890625 C 2.9060625,-0.93608594 2.3904375,-1.7563984 1.6404375,-2.2954609 h 7.546875 c 0.140625,0 0.2109375,-0.09375 0.2109375,-0.1992188 z m 0,0"
       style="fill:#000000;fill-opacity:1;fill-rule:nonzero;stroke:none"
       aria-label="←"
       transform="matrix(1.3333333,0,0,1.3333333,77.344,155.19733)" />
    <text
       id="text39"
       xml:space="preserve"
       transform="matrix(1.3333333,0,0,1.3333333,93.726667,155.19733)"><tspan
         style="font-style:italic;font-variant:normal;font-weight:normal;font-size:9.9626px;font-family:'PT Sans';writing-mode:lr-tb;fill:#000000;fill-opacity:1;fill-rule:nonzero;stroke:none"
         x="0"
         y="0"
         id="tspan40">O</tspan><tspan
         style="font-style:italic;font-variant:normal;font-weight:normal;font-size:9.9626px;font-family:'PT Sans';writing-mode:lr-tb;fill:#000000;fill-opacity:1;fill-rule:nonzero;stroke:none"
         x="0.222"
         y="-0.27700001"
         id="tspan41">O</tspan><tspan
         style="font-style:italic;font-variant:normal;font-weight:normal;font-size:9.9626px;font-family:'PT Sans';writing-mode:lr-tb;fill:#000000;fill-opacity:1;fill-rule:nonzero;stroke:none"
         x="0.44299999"
         y="0"
         id="tspan42">O</tspan></text>
    <text
       id="text42"
       xml:space="preserve"
       transform="matrix(1.3333333,0,0,1.3333333,44.601333,171.13733)"><tspan
         style="font-variant:normal;font-weight:normal;font-size:8.9664px;font-family:'PT Sans';writing-mode:lr-tb;fill:#000000;fill-opacity:1;fill-rule:nonzero;stroke:none"
         x="0 4.8866882"
         y="0"
         sodipodi:role="line"
         id="tspan43">4:</tspan></text>
    <text
       id="text43"
       xml:space="preserve"
       transform="matrix(1.3333333,0,0,1.3333333,60.377333,171.13733)"><tspan
         style="font-variant:normal;font-weight:700;font-size:9.9626px;font-family:'PT Sans';writing-mode:lr-tb;fill:#000000;fill-opacity:1;fill-rule:nonzero;stroke:none"
         x="0 3.1481817 8.4980974"
         y="0"
         sodipodi:role="line"
         id="tspan44">for</tspan><tspan
         style="font-style:italic;font-variant:normal;font-weight:normal;font-size:9.9626px;font-family:'PT Sans';writing-mode:lr-tb;fill:#000000;fill-opacity:1;fill-rule:nonzero;stroke:none"
         x="14.655"
         y="0"
         id="tspan45">i</tspan></text>
    <path
       id="path45"
       d="m 9.3993359,-2.4965547 c 0,-0.09375 -0.070312,-0.1992187 -0.2109375,-0.1992187 h -7.546875 c 0.75,-0.5273438 1.265625,-1.3476563 1.4296875,-2.2617188 0,-0.082031 -0.046875,-0.1289062 -0.1171875,-0.1289062 H 2.7782422 c -0.046875,0 -0.09375,0.035156 -0.1054688,0.082031 -0.1875,1.1132813 -0.9726562,2.0390625 -2.03906246,2.4140625 -0.046875,0.011719 -0.0820313,0.046875 -0.0820313,0.09375 0,0.058594 0.0351563,0.09375 0.0820313,0.1054688 1.06640626,0.375 1.85156246,1.2890625 2.03906246,2.41406246 0.011719,0.046875 0.058594,0.08203125 0.1054688,0.08203125 h 0.1757812 c 0.070312,0 0.1171875,-0.046875 0.1171875,-0.12890625 C 2.9071484,-0.93796094 2.3915234,-1.7582734 1.6415234,-2.2973359 h 7.546875 c 0.140625,0 0.2109375,-0.09375 0.2109375,-0.1992188 z m 0,0"
       style="fill:#000000;fill-opacity:1;fill-rule:nonzero;stroke:none"
       aria-label="←"
       transform="matrix(1.3333333,0,0,1.3333333,87.393333,171.13733)" />
    <text
       id="text45"
       xml:space="preserve"
       transform="matrix(1.3333333,0,0,1.3333333,104.36667,171.13733)"><tspan
         style="font-style:italic;font-variant:normal;font-weight:normal;font-size:9.9626px;font-family:'PT Sans';writing-mode:lr-tb;fill:#000000;fill-opacity:1;fill-rule:nonzero;stroke:none"
         x="0"
         y="0"
         id="tspan46">n</tspan></text>
    <path
       id="path46"
       d="m 6.9154922,-2.4965547 c 0,-0.1992187 -0.1875,-0.1992187 -0.328125,-0.1992187 H 1.1615859 c -0.140625,0 -0.32812496,0 -0.32812496,0.1992187 0,0.1992188 0.18749996,0.1992188 0.32812496,0.1992188 h 5.4257813 c 0.140625,0 0.328125,0 0.328125,-0.1992188 z m 0,0"
       style="fill:#000000;fill-opacity:1;fill-rule:nonzero;stroke:none"
       aria-label="−"
       transform="matrix(1.3333333,0,0,1.3333333,114.252,171.13733)" />
    <text
       id="text46"
       xml:space="preserve"
       transform="matrix(1.3333333,0,0,1.3333333,127.536,171.13733)"><tspan
         style="font-variant:normal;font-weight:normal;font-size:9.9626px;font-family:'PT Sans';writing-mode:lr-tb;fill:#000000;fill-opacity:1;fill-rule:nonzero;stroke:none"
         x="0 8.0896311 13.44951 18.679874 26.002386 34.111942 37.379677 45.379642"
         y="0"
         sodipodi:role="line"
         id="tspan47">1<tspan
   style="font-weight:bold"
   id="tspan91">downto</tspan>0</tspan><tspan
         style="font-variant:normal;font-weight:700;font-size:9.9626px;font-family:'PT Sans';writing-mode:lr-tb;fill:#000000;fill-opacity:1;fill-rule:nonzero;stroke:none"
         x="53.469002 58.83884"
         y="0"
         sodipodi:role="line"
         id="tspan48">do</tspan></text>
    <text
       id="text48"
       xml:space="preserve"
       transform="matrix(1.3333333,0,0,1.3333333,44.601333,187.07733)"><tspan
         style="font-variant:normal;font-weight:normal;font-size:8.9664px;font-family:'PT Sans';writing-mode:lr-tb;fill:#000000;fill-opacity:1;fill-rule:nonzero;stroke:none"
         x="0 4.8866882"
         y="0"
         sodipodi:role="line"
         id="tspan49">5:</tspan></text>
    <text
       id="text49"
       xml:space="preserve"
       transform="matrix(1.3333333,0,0,1.3333333,79.712,187.07733)"><tspan
         style="font-style:italic;font-variant:normal;font-weight:normal;font-size:9.9626px;font-family:'PT Sans';writing-mode:lr-tb;fill:#000000;fill-opacity:1;fill-rule:nonzero;stroke:none"
         x="0"
         y="0"
         id="tspan50">R</tspan><tspan
         style="font-style:italic;font-variant:normal;font-weight:normal;font-size:9.9626px;font-family:'PT Sans';writing-mode:lr-tb;fill:#000000;fill-opacity:1;fill-rule:nonzero;stroke:none"
         x="0.222"
         y="-0.27700001"
         id="tspan51">R</tspan><tspan
         style="font-style:italic;font-variant:normal;font-weight:normal;font-size:9.9626px;font-family:'PT Sans';writing-mode:lr-tb;fill:#000000;fill-opacity:1;fill-rule:nonzero;stroke:none"
         x="0.44299999"
         y="0"
         id="tspan52">R</tspan><tspan
         style="font-variant:normal;font-weight:normal;font-size:6.9738px;font-family:'PT Sans';writing-mode:lr-tb;fill:#000000;fill-opacity:1;fill-rule:nonzero;stroke:none"
         x="6.1020002"
         y="1.52"
         id="tspan53">0</tspan></text>
    <path
       id="path53"
       d="m 9.3985859,-2.4955 c 0,-0.09375 -0.070312,-0.1992188 -0.2109375,-0.1992188 h -7.546875 c 0.75,-0.5273437 1.265625,-1.3476562 1.4296875,-2.2617187 0,-0.082031 -0.046875,-0.1289063 -0.1171875,-0.1289063 H 2.7774922 c -0.046875,0 -0.09375,0.035156 -0.1054688,0.082031 -0.1875,1.1132812 -0.9726562,2.0390625 -2.03906246,2.4140625 -0.046875,0.011719 -0.0820313,0.046875 -0.0820313,0.09375 0,0.058594 0.0351563,0.09375 0.0820313,0.1054687 1.06640626,0.375 1.85156246,1.2890625 2.03906246,2.41406255 0.011719,0.046875 0.058594,0.08203125 0.1054688,0.08203125 h 0.1757812 c 0.070312,0 0.1171875,-0.046875 0.1171875,-0.12890625 C 2.9063984,-0.93690625 2.3907734,-1.7572188 1.6407734,-2.2962813 h 7.546875 c 0.140625,0 0.2109375,-0.09375 0.2109375,-0.1992187 z m 0,0"
       style="fill:#000000;fill-opacity:1;fill-rule:nonzero;stroke:none"
       aria-label="←"
       transform="matrix(1.3333333,0,0,1.3333333,97.269333,187.07733)" />
    <text
       id="text53"
       xml:space="preserve"
       transform="matrix(1.3333333,0,0,1.3333333,114.24267,187.07733)"><tspan
         style="font-variant:normal;font-weight:normal;font-size:9.9626px;font-family:'PT Sans';writing-mode:lr-tb;fill:#000000;fill-opacity:1;fill-rule:nonzero;stroke:none"
         x="0"
         y="0"
         id="tspan54">2</tspan><tspan
         style="font-style:italic;font-variant:normal;font-weight:normal;font-size:9.9626px;font-family:'PT Sans';writing-mode:lr-tb;fill:#000000;fill-opacity:1;fill-rule:nonzero;stroke:none"
         x="4.987"
         y="0"
         id="tspan55">R</tspan><tspan
         style="font-style:italic;font-variant:normal;font-weight:normal;font-size:9.9626px;font-family:'PT Sans';writing-mode:lr-tb;fill:#000000;fill-opacity:1;fill-rule:nonzero;stroke:none"
         x="5.2080002"
         y="-0.27700001"
         id="tspan56">R</tspan><tspan
         style="font-style:italic;font-variant:normal;font-weight:normal;font-size:9.9626px;font-family:'PT Sans';writing-mode:lr-tb;fill:#000000;fill-opacity:1;fill-rule:nonzero;stroke:none"
         x="5.4299998"
         y="0"
         id="tspan57">R</tspan><tspan
         style="font-variant:normal;font-weight:normal;font-size:6.9738px;font-family:'PT Sans';writing-mode:lr-tb;fill:#000000;fill-opacity:1;fill-rule:nonzero;stroke:none"
         x="11.088"
         y="1.52"
         id="tspan58">0</tspan></text>
    <text
       id="text58"
       xml:space="preserve"
       transform="matrix(1.3333333,0,0,1.3333333,44.601333,203.01733)"><tspan
         style="font-variant:normal;font-weight:normal;font-size:8.9664px;font-family:'PT Sans';writing-mode:lr-tb;fill:#000000;fill-opacity:1;fill-rule:nonzero;stroke:none"
         x="0 4.8866882"
         y="0"
         sodipodi:role="line"
         id="tspan59">6:</tspan></text>
    <text
       id="text59"
       xml:space="preserve"
       transform="matrix(1.3333333,0,0,1.3333333,80.302667,203.01733)"><tspan
         style="font-variant:normal;font-weight:700;font-size:9.9626px;font-family:'PT Sans';writing-mode:lr-tb;fill:#000000;fill-opacity:1;fill-rule:nonzero;stroke:none"
         x="0 2.6799395"
         y="0"
         sodipodi:role="line"
         id="tspan60">if</tspan><tspan
         style="font-style:italic;font-variant:normal;font-weight:normal;font-size:9.9626px;font-family:'PT Sans';writing-mode:lr-tb;fill:#000000;fill-opacity:1;fill-rule:nonzero;stroke:none"
         x="9.0159998"
         y="0"
         id="tspan61">k</tspan><tspan
         style="font-style:italic;font-variant:normal;font-weight:normal;font-size:6.9738px;font-family:'PT Sans';writing-mode:lr-tb;fill:#000000;fill-opacity:1;fill-rule:nonzero;stroke:none"
         x="13.489"
         y="1.52"
         id="tspan62">i</tspan><tspan
         style="font-variant:normal;font-weight:normal;font-size:9.9626px;font-family:'PT Sans';writing-mode:lr-tb;fill:#000000;fill-opacity:1;fill-rule:nonzero;stroke:none"
         x="18.742001"
         y="0"
         id="tspan63">=</tspan><tspan
         style="font-variant:normal;font-weight:normal;font-size:9.9626px;font-family:'PT Sans';writing-mode:lr-tb;fill:#000000;fill-opacity:1;fill-rule:nonzero;stroke:none"
         x="26.541"
         y="0"
         id="tspan64">1</tspan><tspan
         style="font-variant:normal;font-weight:700;font-size:9.9626px;font-family:'PT Sans';writing-mode:lr-tb;fill:#000000;fill-opacity:1;fill-rule:nonzero;stroke:none"
         x="34.631001 38.107948 43.537563 48.598564"
         y="0"
         sodipodi:role="line"
         id="tspan65">then</tspan></text>
    <text
       id="text65"
       xml:space="preserve"
       transform="matrix(1.3333333,0,0,1.3333333,44.601333,218.95733)"><tspan
         style="font-variant:normal;font-weight:normal;font-size:8.9664px;font-family:'PT Sans';writing-mode:lr-tb;fill:#000000;fill-opacity:1;fill-rule:nonzero;stroke:none"
         x="0 4.8866882"
         y="0"
         sodipodi:role="line"
         id="tspan66">7:</tspan></text>
    <text
       id="text66"
       xml:space="preserve"
       transform="matrix(1.3333333,0,0,1.3333333,99.637333,218.95733)"><tspan
         style="font-style:italic;font-variant:normal;font-weight:normal;font-size:9.9626px;font-family:'PT Sans';writing-mode:lr-tb;fill:#000000;fill-opacity:1;fill-rule:nonzero;stroke:none"
         x="0"
         y="0"
         id="tspan67">R</tspan><tspan
         style="font-style:italic;font-variant:normal;font-weight:normal;font-size:9.9626px;font-family:'PT Sans';writing-mode:lr-tb;fill:#000000;fill-opacity:1;fill-rule:nonzero;stroke:none"
         x="0.222"
         y="-0.27599999"
         id="tspan68">R</tspan><tspan
         style="font-style:italic;font-variant:normal;font-weight:normal;font-size:9.9626px;font-family:'PT Sans';writing-mode:lr-tb;fill:#000000;fill-opacity:1;fill-rule:nonzero;stroke:none"
         x="0.44299999"
         y="0"
         id="tspan69">R</tspan><tspan
         style="font-variant:normal;font-weight:normal;font-size:6.9738px;font-family:'PT Sans';writing-mode:lr-tb;fill:#000000;fill-opacity:1;fill-rule:nonzero;stroke:none"
         x="6.1020002"
         y="1.52"
         id="tspan70">0</tspan></text>
    <path
       id="path70"
       d="m 9.3989219,-2.4963203 c 0,-0.09375 -0.070312,-0.1992188 -0.2109375,-0.1992188 h -7.546875 c 0.75,-0.5273437 1.265625,-1.3476562 1.4296875,-2.2617187 0,-0.082031 -0.046875,-0.1289063 -0.1171875,-0.1289063 H 2.7778281 c -0.046875,0 -0.09375,0.035156 -0.1054687,0.082031 -0.1875,1.1132812 -0.9726563,2.0390625 -2.03906253,2.4140625 -0.046875,0.011719 -0.0820313,0.046875 -0.0820313,0.09375 0,0.058594 0.0351563,0.09375 0.0820313,0.1054687 1.06640623,0.375 1.85156253,1.2890625 2.03906253,2.41406254 0.011719,0.046875 0.058594,0.08203125 0.1054687,0.08203125 h 0.1757813 c 0.070312,0 0.1171875,-0.046875 0.1171875,-0.12890625 C 2.9067344,-0.93772656 2.3911094,-1.7580391 1.6411094,-2.2971016 h 7.546875 c 0.140625,0 0.2109375,-0.09375 0.2109375,-0.1992187 z m 0,0"
       style="fill:#000000;fill-opacity:1;fill-rule:nonzero;stroke:none"
       aria-label="←"
       transform="matrix(1.3333333,0,0,1.3333333,117.19467,218.95733)" />
    <text
       id="text70"
       xml:space="preserve"
       transform="matrix(1.3333333,0,0,1.3333333,133.57733,218.95733)"><tspan
         style="font-style:italic;font-variant:normal;font-weight:normal;font-size:9.9626px;font-family:'PT Sans';writing-mode:lr-tb;fill:#000000;fill-opacity:1;fill-rule:nonzero;stroke:none"
         x="0"
         y="0"
         id="tspan71">R</tspan><tspan
         style="font-style:italic;font-variant:normal;font-weight:normal;font-size:9.9626px;font-family:'PT Sans';writing-mode:lr-tb;fill:#000000;fill-opacity:1;fill-rule:nonzero;stroke:none"
         x="0.222"
         y="-0.27599999"
         id="tspan72">R</tspan><tspan
         style="font-style:italic;font-variant:normal;font-weight:normal;font-size:9.9626px;font-family:'PT Sans';writing-mode:lr-tb;fill:#000000;fill-opacity:1;fill-rule:nonzero;stroke:none"
         x="0.44299999"
         y="0"
         id="tspan73">R</tspan><tspan
         style="font-variant:normal;font-weight:normal;font-size:6.9738px;font-family:'PT Sans';writing-mode:lr-tb;fill:#000000;fill-opacity:1;fill-rule:nonzero;stroke:none"
         x="6.1020002"
         y="1.52"
         id="tspan74">0</tspan><tspan
         style="font-variant:normal;font-weight:normal;font-size:9.9626px;font-family:'PT Sans';writing-mode:lr-tb;fill:#000000;fill-opacity:1;fill-rule:nonzero;stroke:none"
         x="12.614"
         y="0"
         id="tspan75">+</tspan><tspan
         style="font-style:italic;font-variant:normal;font-weight:normal;font-size:9.9626px;font-family:'PT Sans';writing-mode:lr-tb;fill:#000000;fill-opacity:1;fill-rule:nonzero;stroke:none"
         x="19.417"
         y="0"
         id="tspan76">P</tspan><tspan
         style="font-style:italic;font-variant:normal;font-weight:normal;font-size:9.9626px;font-family:'PT Sans';writing-mode:lr-tb;fill:#000000;fill-opacity:1;fill-rule:nonzero;stroke:none"
         x="19.638"
         y="-0.27599999"
         id="tspan77">P</tspan><tspan
         style="font-style:italic;font-variant:normal;font-weight:normal;font-size:9.9626px;font-family:'PT Sans';writing-mode:lr-tb;fill:#000000;fill-opacity:1;fill-rule:nonzero;stroke:none"
         x="19.858999"
         y="0"
         id="tspan78">P</tspan></text>
    <text
       id="text78"
       xml:space="preserve"
       transform="matrix(1.3333333,0,0,1.3333333,44.602667,237.04533)"><tspan
         style="font-variant:normal;font-weight:normal;font-size:8.9664px;font-family:'PT Sans';writing-mode:lr-tb;fill:#000000;fill-opacity:1;fill-rule:nonzero;stroke:none"
         x="0 4.8866882"
         y="0"
         sodipodi:role="line"
         id="tspan79">8:</tspan></text>
    <text
       id="text79"
       xml:space="preserve"
       transform="matrix(1.3333333,0,0,1.3333333,60.377333,237.04533)"><tspan
         style="font-variant:normal;font-weight:700;font-size:9.9626px;font-family:'PT Sans';writing-mode:lr-tb;fill:#000000;fill-opacity:1;fill-rule:nonzero;stroke:none"
         x="0 3.4968727 8.5578737 12.034821 17.394699 20.891573"
         y="0"
         sodipodi:role="line"
         id="tspan80">return</tspan><tspan
         style="font-style:italic;font-variant:normal;font-weight:normal;font-size:9.9626px;font-family:'PT Sans';writing-mode:lr-tb;fill:#000000;fill-opacity:1;fill-rule:nonzero;stroke:none"
         x="28.539"
         y="0"
         id="tspan81">R</tspan><tspan
         style="font-style:italic;font-variant:normal;font-weight:normal;font-size:9.9626px;font-family:'PT Sans';writing-mode:lr-tb;fill:#000000;fill-opacity:1;fill-rule:nonzero;stroke:none"
         x="28.76"
         y="-0.27700001"
         id="tspan82">R</tspan><tspan
         style="font-style:italic;font-variant:normal;font-weight:normal;font-size:9.9626px;font-family:'PT Sans';writing-mode:lr-tb;fill:#000000;fill-opacity:1;fill-rule:nonzero;stroke:none"
         x="28.981001"
         y="0"
         id="tspan83">R</tspan><tspan
         style="font-variant:normal;font-weight:normal;font-size:6.9738px;font-family:'PT Sans';writing-mode:lr-tb;fill:#000000;fill-opacity:1;fill-rule:nonzero;stroke:none"
         x="34.639999"
         y="1.52"
         id="tspan84">0</tspan></text>
    <path
       id="path84"
       d="M 0,0 H 396.85"
       style="fill:none;stroke:#000000;stroke-width:0.398;stroke-linecap:butt;stroke-linejoin:miter;stroke-miterlimit:10;stroke-dasharray:none;stroke-opacity:1"
       transform="matrix(1.3333333,0,0,-1.3333333,37.794667,244.772)" />
    <text
       id="text84"
       xml:space="preserve"
       transform="matrix(1.3333333,0,0,1.3333333,2719.3411,-2383.6731)"><tspan
         style="font-variant:normal;font-weight:900;font-size:5.9776px;font-family:'Font Awesome 5 Free';writing-mode:lr-tb;fill:#c6c6c6;fill-opacity:1;fill-rule:nonzero;stroke:none"
         x="0"
         y="0"
         id="tspan85">□</tspan></text>
    <text
       id="text85"
       xml:space="preserve"
       transform="matrix(1.3333333,0,0,1.3333333,2733.5877,-2383.6731)"><tspan
         style="font-variant:normal;font-weight:normal;font-size:10.9091px;font-family:'PT Sans';writing-mode:lr-tb;fill:#000000;fill-opacity:1;fill-rule:nonzero;stroke:none"
         x="0 9.0327349 15.000012 20.410927 27.021841 29.94548 37.450939 43.309128 49.156406 55.003681 63.785507 69.196419 75.087334 80.934616 86.814621 93.425529 97.123718 103.091 106.01463 113.5201 118.93101 122.11646 127.97466 133.82193 137.53102 140.45467 144.15285 150.12013 158.97832"
         y="0"
         sodipodi:role="line"
         id="tspan86">Whatisgoodaboutthisalgorithm?</tspan></text>
    <text
       id="text86"
       xml:space="preserve"
       transform="matrix(1.3333333,0,0,1.3333333,2719.3411,-2361.6224)"><tspan
         style="font-variant:normal;font-weight:900;font-size:5.9776px;font-family:'Font Awesome 5 Free';writing-mode:lr-tb;fill:#c6c6c6;fill-opacity:1;fill-rule:nonzero;stroke:none"
         x="0"
         y="0"
         id="tspan87">□</tspan></text>
    <text
       id="text87"
       xml:space="preserve"
       transform="matrix(1.3333333,0,0,1.3333333,2733.5877,-2361.6224)"><tspan
         style="font-variant:normal;font-weight:normal;font-size:10.9091px;font-family:'PT Sans';writing-mode:lr-tb;fill:#000000;fill-opacity:1;fill-rule:nonzero;stroke:none"
         x="0 9.0327349 15.000012 20.410927 27.021841 29.94548 37.450939 45.469128 49.178223 55.025501 60.992779 66.850967"
         y="0"
         sodipodi:role="line"
         id="tspan88">Whatiswrong?</tspan></text>
  </g>
</svg>
