<?xml version="1.0" encoding="UTF-8" standalone="no"?>
<!-- Created with Inkscape (http://www.inkscape.org/) -->

<svg
   width="315.68301mm"
   height="109.37489mm"
   viewBox="0 0 315.68301 109.37489"
   version="1.1"
   id="svg1"
   inkscape:version="1.3.2 (091e20ef0f, 2023-11-25, custom)"
   sodipodi:docname="rpa.svg"
   xmlns:inkscape="http://www.inkscape.org/namespaces/inkscape"
   xmlns:sodipodi="http://sodipodi.sourceforge.net/DTD/sodipodi-0.dtd"
   xmlns="http://www.w3.org/2000/svg"
   xmlns:svg="http://www.w3.org/2000/svg">
  <sodipodi:namedview
     id="namedview1"
     pagecolor="#ffffff"
     bordercolor="#999999"
     borderopacity="1"
     inkscape:showpageshadow="0"
     inkscape:pageopacity="0"
     inkscape:pagecheckerboard="0"
     inkscape:deskcolor="#d1d1d1"
     inkscape:document-units="mm"
     inkscape:zoom="0.9990661"
     inkscape:cx="353.83044"
     inkscape:cy="287.76875"
     inkscape:window-width="1920"
     inkscape:window-height="1005"
     inkscape:window-x="0"
     inkscape:window-y="0"
     inkscape:window-maximized="1"
     inkscape:current-layer="layer1"
     showgrid="false"
     showguides="true">
    <inkscape:page
       x="0"
       y="0"
       width="315.68301"
       height="109.37489"
       id="page16"
       margin="10.000001"
       bleed="0" />
    <sodipodi:guide
       position="70.207904,60.908243"
       orientation="1,0"
       id="guide24"
       inkscape:locked="false" />
    <sodipodi:guide
       position="127.01394,35.512222"
       orientation="0,-1"
       id="guide25"
       inkscape:locked="false" />
  </sodipodi:namedview>
  <defs
     id="defs1">
    <marker
       style="overflow:visible"
       id="ArrowTriangleStylized"
       refX="0"
       refY="0"
       orient="auto-start-reverse"
       inkscape:stockid="Stylized triangle arrow"
       markerWidth="1"
       markerHeight="1"
       viewBox="0 0 1 1"
       inkscape:isstock="true"
       inkscape:collect="always"
       preserveAspectRatio="xMidYMid">
      <path
         transform="scale(0.5)"
         style="fill:context-stroke;fill-rule:evenodd;stroke:context-stroke;stroke-width:1pt"
         d="m 6,0 c -3,1 -7,3 -9,5 0,0 0,-4 2,-5 -2,-1 -2,-5 -2,-5 2,2 6,4 9,5 z"
         id="path4" />
    </marker>
    <marker
       style="overflow:visible"
       id="ArrowTriangleStylized-5"
       refX="0"
       refY="0"
       orient="auto-start-reverse"
       inkscape:stockid="Stylized triangle arrow"
       markerWidth="1"
       markerHeight="1"
       viewBox="0 0 1 1"
       inkscape:isstock="true"
       inkscape:collect="always"
       preserveAspectRatio="xMidYMid">
      <path
         transform="scale(0.5)"
         style="fill:context-stroke;fill-rule:evenodd;stroke:context-stroke;stroke-width:1pt"
         d="m 6,0 c -3,1 -7,3 -9,5 0,0 0,-4 2,-5 -2,-1 -2,-5 -2,-5 2,2 6,4 9,5 z"
         id="path4-2" />
    </marker>
    <marker
       style="overflow:visible"
       id="ArrowTriangleStylized-5-4"
       refX="0"
       refY="0"
       orient="auto-start-reverse"
       inkscape:stockid="Stylized triangle arrow"
       markerWidth="1"
       markerHeight="1"
       viewBox="0 0 1 1"
       inkscape:isstock="true"
       inkscape:collect="always"
       preserveAspectRatio="xMidYMid">
      <path
         transform="scale(0.5)"
         style="fill:context-stroke;fill-rule:evenodd;stroke:context-stroke;stroke-width:1pt"
         d="m 6,0 c -3,1 -7,3 -9,5 0,0 0,-4 2,-5 -2,-1 -2,-5 -2,-5 2,2 6,4 9,5 z"
         id="path4-2-6" />
    </marker>
    <marker
       style="overflow:visible"
       id="ArrowTriangleStylized-5-4-3"
       refX="0"
       refY="0"
       orient="auto-start-reverse"
       inkscape:stockid="Stylized triangle arrow"
       markerWidth="1"
       markerHeight="1"
       viewBox="0 0 1 1"
       inkscape:isstock="true"
       inkscape:collect="always"
       preserveAspectRatio="xMidYMid">
      <path
         transform="scale(0.5)"
         style="fill:context-stroke;fill-rule:evenodd;stroke:context-stroke;stroke-width:1pt"
         d="m 6,0 c -3,1 -7,3 -9,5 0,0 0,-4 2,-5 -2,-1 -2,-5 -2,-5 2,2 6,4 9,5 z"
         id="path4-2-6-7" />
    </marker>
    <marker
       style="overflow:visible"
       id="ArrowTriangleStylized-7"
       refX="0"
       refY="0"
       orient="auto-start-reverse"
       inkscape:stockid="Stylized triangle arrow"
       markerWidth="1"
       markerHeight="1"
       viewBox="0 0 1 1"
       inkscape:isstock="true"
       inkscape:collect="always"
       preserveAspectRatio="xMidYMid">
      <path
         transform="scale(0.5)"
         style="fill:context-stroke;fill-rule:evenodd;stroke:context-stroke;stroke-width:1pt"
         d="m 6,0 c -3,1 -7,3 -9,5 0,0 0,-4 2,-5 -2,-1 -2,-5 -2,-5 2,2 6,4 9,5 z"
         id="path4-4" />
    </marker>
    <marker
       style="overflow:visible"
       id="ArrowTriangleStylized-5-1"
       refX="0"
       refY="0"
       orient="auto-start-reverse"
       inkscape:stockid="Stylized triangle arrow"
       markerWidth="1"
       markerHeight="1"
       viewBox="0 0 1 1"
       inkscape:isstock="true"
       inkscape:collect="always"
       preserveAspectRatio="xMidYMid">
      <path
         transform="scale(0.5)"
         style="fill:context-stroke;fill-rule:evenodd;stroke:context-stroke;stroke-width:1pt"
         d="m 6,0 c -3,1 -7,3 -9,5 0,0 0,-4 2,-5 -2,-1 -2,-5 -2,-5 2,2 6,4 9,5 z"
         id="path4-2-9" />
    </marker>
    <marker
       style="overflow:visible"
       id="ArrowTriangleStylized-5-4-0"
       refX="0"
       refY="0"
       orient="auto-start-reverse"
       inkscape:stockid="Stylized triangle arrow"
       markerWidth="1"
       markerHeight="1"
       viewBox="0 0 1 1"
       inkscape:isstock="true"
       inkscape:collect="always"
       preserveAspectRatio="xMidYMid">
      <path
         transform="scale(0.5)"
         style="fill:context-stroke;fill-rule:evenodd;stroke:context-stroke;stroke-width:1pt"
         d="m 6,0 c -3,1 -7,3 -9,5 0,0 0,-4 2,-5 -2,-1 -2,-5 -2,-5 2,2 6,4 9,5 z"
         id="path4-2-6-9" />
    </marker>
    <marker
       style="overflow:visible"
       id="ArrowTriangleStylized-5-4-3-0"
       refX="0"
       refY="0"
       orient="auto-start-reverse"
       inkscape:stockid="Stylized triangle arrow"
       markerWidth="1"
       markerHeight="1"
       viewBox="0 0 1 1"
       inkscape:isstock="true"
       inkscape:collect="always"
       preserveAspectRatio="xMidYMid">
      <path
         transform="scale(0.5)"
         style="fill:context-stroke;fill-rule:evenodd;stroke:context-stroke;stroke-width:1pt"
         d="m 6,0 c -3,1 -7,3 -9,5 0,0 0,-4 2,-5 -2,-1 -2,-5 -2,-5 2,2 6,4 9,5 z"
         id="path4-2-6-7-2" />
    </marker>
    <marker
       style="overflow:visible"
       id="ArrowTriangleStylized-5-4-3-1"
       refX="0"
       refY="0"
       orient="auto-start-reverse"
       inkscape:stockid="Stylized triangle arrow"
       markerWidth="1"
       markerHeight="1"
       viewBox="0 0 1 1"
       inkscape:isstock="true"
       inkscape:collect="always"
       preserveAspectRatio="xMidYMid">
      <path
         transform="scale(0.5)"
         style="fill:context-stroke;fill-rule:evenodd;stroke:context-stroke;stroke-width:1pt"
         d="m 6,0 c -3,1 -7,3 -9,5 0,0 0,-4 2,-5 -2,-1 -2,-5 -2,-5 2,2 6,4 9,5 z"
         id="path4-2-6-7-1" />
    </marker>
    <marker
       style="overflow:visible"
       id="ArrowTriangleStylized-5-4-3-1-2"
       refX="0"
       refY="0"
       orient="auto-start-reverse"
       inkscape:stockid="Stylized triangle arrow"
       markerWidth="1"
       markerHeight="1"
       viewBox="0 0 1 1"
       inkscape:isstock="true"
       inkscape:collect="always"
       preserveAspectRatio="xMidYMid">
      <path
         transform="scale(0.5)"
         style="fill:context-stroke;fill-rule:evenodd;stroke:context-stroke;stroke-width:1pt"
         d="m 6,0 c -3,1 -7,3 -9,5 0,0 0,-4 2,-5 -2,-1 -2,-5 -2,-5 2,2 6,4 9,5 z"
         id="path4-2-6-7-1-1" />
    </marker>
    <marker
       style="overflow:visible"
       id="ArrowTriangleStylized-5-4-3-1-2-0"
       refX="0"
       refY="0"
       orient="auto-start-reverse"
       inkscape:stockid="Stylized triangle arrow"
       markerWidth="1"
       markerHeight="1"
       viewBox="0 0 1 1"
       inkscape:isstock="true"
       inkscape:collect="always"
       preserveAspectRatio="xMidYMid">
      <path
         transform="scale(0.5)"
         style="fill:context-stroke;fill-rule:evenodd;stroke:context-stroke;stroke-width:1pt"
         d="m 6,0 c -3,1 -7,3 -9,5 0,0 0,-4 2,-5 -2,-1 -2,-5 -2,-5 2,2 6,4 9,5 z"
         id="path4-2-6-7-1-1-8" />
    </marker>
  </defs>
  <g
     inkscape:label="Layer 1"
     inkscape:groupmode="layer"
     id="layer1"
     transform="translate(2.404488,16.14682)">
    <text
       xml:space="preserve"
       style="font-size:7.05556px;line-height:1.25;font-family:'Veteran Typewriter';-inkscape-font-specification:'Veteran Typewriter';stroke-width:0.264583"
       x="9.3223495"
       y="22.505949"
       id="text1"><tspan
         sodipodi:role="line"
         id="tspan1"
         style="font-style:normal;font-variant:normal;font-weight:normal;font-stretch:normal;font-family:'Latin Modern Roman';-inkscape-font-specification:'Latin Modern Roman, ';stroke-width:0.264583"
         x="9.3223495"
         y="22.505949"><tspan
   style="font-style:italic"
   id="tspan4">P</tspan> = [<tspan
   style="font-style:italic"
   id="tspan5">r</tspan><tspan
   style="font-size:65%;baseline-shift:super"
   id="tspan2">-1</tspan>]<tspan
   style="font-style:italic"
   id="tspan6">P</tspan><tspan
   style="font-size:65%;baseline-shift:sub"
   id="tspan3">0</tspan></tspan></text>
    <text
       xml:space="preserve"
       style="font-size:7.05556px;line-height:1.25;font-family:'Veteran Typewriter';-inkscape-font-specification:'Veteran Typewriter';stroke-width:0.264583"
       x="11.760186"
       y="70.346077"
       id="text1-8"><tspan
         sodipodi:role="line"
         id="tspan1-1"
         style="font-style:normal;font-variant:normal;font-weight:normal;font-stretch:normal;font-family:'Latin Modern Roman';-inkscape-font-specification:'Latin Modern Roman, ';stroke-width:0.264583"
         x="11.760186"
         y="70.346077"><tspan
   style="font-style:normal;font-variant:normal;font-weight:normal;font-stretch:normal;font-family:'Latin Modern Sans';-inkscape-font-specification:'Latin Modern Sans'"
   id="tspan18">random</tspan> <tspan
   style="font-style:italic"
   id="tspan17">P</tspan></tspan></text>
    <path
       style="fill:none;stroke:#000000;stroke-width:0.465;stroke-linecap:butt;stroke-linejoin:miter;stroke-dasharray:none;stroke-opacity:1;marker-end:url(#ArrowTriangleStylized)"
       d="M 48.076593,21.224212 H 61.718991"
       id="path6" />
    <text
       xml:space="preserve"
       style="font-size:7.05556px;line-height:1.25;font-family:'Veteran Typewriter';-inkscape-font-specification:'Veteran Typewriter';stroke-width:0.264583"
       x="49.451561"
       y="18.377151"
       id="text7"><tspan
         sodipodi:role="line"
         id="tspan7"
         style="font-style:normal;font-variant:normal;font-weight:normal;font-stretch:normal;font-family:'Latin Modern Sans';-inkscape-font-specification:'Latin Modern Sans';stroke-width:0.264583"
         x="49.451561"
         y="18.377151"><tspan
   style="font-style:normal;font-variant:normal;font-weight:normal;font-stretch:normal;font-size:4.58611px;font-family:'Latin Modern Sans';-inkscape-font-specification:'Latin Modern Sans'"
   id="tspan8">x</tspan>100</tspan></text>
    <rect
       style="fill:#000000;fill-opacity:1;stroke:#000000;stroke-width:0.465;stroke-linecap:square;stroke-dasharray:none;stroke-opacity:1;paint-order:stroke fill markers"
       id="rect9"
       width="31.953686"
       height="21.726229"
       x="68.035919"
       y="10.361097" />
    <text
       xml:space="preserve"
       style="font-size:7.05556px;line-height:1.25;font-family:'Veteran Typewriter';-inkscape-font-specification:'Veteran Typewriter';stroke-width:0.264583"
       x="74.470108"
       y="28.011404"
       id="text9"><tspan
         sodipodi:role="line"
         id="tspan9"
         style="font-style:normal;font-variant:normal;font-weight:normal;font-stretch:normal;font-family:'Latin Modern Sans';-inkscape-font-specification:'Latin Modern Sans';fill:#ffffff;fill-opacity:1;stroke-width:0.264583"
         x="74.470108"
         y="28.011404">Target</tspan></text>
    <path
       style="fill:none;stroke:#000000;stroke-width:0.465;stroke-linecap:butt;stroke-linejoin:miter;stroke-dasharray:none;stroke-opacity:1;marker-end:url(#ArrowTriangleStylized-5)"
       d="m 104.42138,21.224212 h 13.6424"
       id="path6-2" />
    <text
       xml:space="preserve"
       style="font-size:7.05556px;line-height:1.25;font-family:'Veteran Typewriter';-inkscape-font-specification:'Veteran Typewriter';stroke-width:0.264583"
       x="104.56868"
       y="18.23604"
       id="text7-9"><tspan
         sodipodi:role="line"
         id="tspan7-4"
         style="font-style:normal;font-variant:normal;font-weight:normal;font-stretch:normal;font-family:'Latin Modern Sans';-inkscape-font-specification:'Latin Modern Sans';stroke-width:0.264583"
         x="104.56868"
         y="18.23604">trace</tspan></text>
    <rect
       style="fill:none;fill-opacity:1;stroke:#000000;stroke-width:0.465;stroke-linecap:square;stroke-dasharray:none;stroke-opacity:1;paint-order:stroke fill markers"
       id="rect9-7"
       width="31.953686"
       height="21.726229"
       x="124.38071"
       y="10.361097" />
    <path
       style="fill:none;stroke:#000000;stroke-width:0.264583px;stroke-linecap:butt;stroke-linejoin:miter;stroke-opacity:1"
       d="m 127.09492,13.156704 c 0.79417,-0.445888 0.3545,-0.273982 1.24812,-0.473281 0.25606,-0.05711 0.49653,-0.202682 0.7588,-0.208968 0.14275,-0.0034 0.7596,0.953453 1.52511,0.783888 0.4766,-0.10557 0.84082,-0.565953 1.28329,-0.743284 0.19354,-0.07757 0.77776,0.374699 0.93802,0.402936 0.3786,0.0667 0.76594,0.08126 1.15036,0.08198 0.80571,0.0015 1.61221,-0.288237 2.41865,-0.221382 0.54725,0.04537 1.02482,0.394461 1.58071,0.498368 1.54959,0.289652 2.67199,0.0067 4.1597,-0.265606 0.63753,-0.116705 1.31745,0.271915 1.97511,0.206123 0.77076,-0.07711 1.7249,0.146926 2.45486,-0.06595 0.14106,-0.04114 1.3809,-0.783474 1.61407,-0.725181 0.45289,0.113222 0.58515,0.541878 1.1307,0.596645 0.37293,0.03744 0.63864,-0.08178 0.99312,-0.132415 0.68511,-0.09787 1.43124,0.119491 2.1383,0.06621 0.31306,-0.02359 0.82895,-0.324146 1.12553,-0.26483 0.51746,0.103492 0.67974,0.596386 1.25769,0.596386"
       id="path9" />
    <path
       style="fill:none;stroke:#000000;stroke-width:0.264583px;stroke-linecap:butt;stroke-linejoin:miter;stroke-opacity:1"
       d="m 127.03015,16.260483 c 0.90081,0.724013 1.61492,-1.431393 2.14152,-1.290051 0.22794,0.06118 0.68147,1.175362 1.37536,1.375878 0.96407,0.27859 2.87679,-0.627298 2.97443,-0.568713 0.45466,0.272792 0.52933,0.879698 1.13484,1.065012 0.3735,0.114308 0.97331,0.146378 1.3583,0.06905 0.3878,-0.07789 0.66876,-0.399524 1.06475,-0.465523 0.63754,-0.106256 1.34572,0.126756 1.9795,0 0.28641,-0.05728 0.57533,-0.299317 0.8607,-0.397246 0.0425,-0.01458 1.01759,0.0941 1.70407,-0.138364 0.0175,-0.0059 0.62078,0.887096 1.12812,0.99984 0.35247,0.07833 0.43651,-0.413795 0.65665,-0.331039 0.27844,0.104674 0.5364,0.362725 0.84156,0.39647 0.50033,0.05533 0.95283,-0.111012 1.39864,-0.200174 0.66258,-0.132517 1.84226,0.132415 2.5821,0.132415 0.5115,0 0.66034,-0.130287 0.99156,-0.463454 0.19526,-0.196409 0.87605,0.237296 1.15372,0.132416 0.31146,-0.117644 0.68946,-0.394407 1.0601,-0.26871 0.23883,0.081 0.40952,0.279907 0.6613,0.330262 0.41137,0.08227 0.53913,-0.264831 0.8607,-0.264831 0.0678,0 0.52311,0.145828 0.52656,0.132416 0.0204,-0.07931 0,-0.163771 0,-0.245657"
       id="path10" />
    <path
       style="fill:none;stroke:#000000;stroke-width:0.264583px;stroke-linecap:butt;stroke-linejoin:miter;stroke-opacity:1"
       d="m 126.94727,20.223855 c 0.94837,-0.316383 1.87653,-0.701399 2.8451,-0.949149 1.59283,-0.407432 2.31127,1.072746 3.94685,0.700871 0.49673,-0.112939 1.05065,-0.675322 1.54192,-0.885787 0.0414,-0.01775 1.68028,0.64756 2.06149,0.632594 0.77282,-0.03034 1.66513,-0.07401 2.4008,-0.410694 0.13487,-0.06173 0.51924,-0.404229 0.73889,-0.404229 0.10859,0 1.37651,0.49579 1.85847,0.530178 1.11725,0.07972 2.27963,-0.208112 3.37969,-0.0706 0.32158,0.0402 2.4834,0.294589 2.65426,0.264831 0.35906,-0.06254 1.39477,-0.578929 1.44053,-0.548541 0.30498,0.202519 0.56645,0.542959 0.93001,0.664146 0.37779,0.125929 0.62493,-0.16338 0.92691,-0.264831 0.16213,-0.05447 2.45148,0.203059 2.50684,0.204869"
       id="path11" />
    <path
       style="fill:none;stroke:#000000;stroke-width:0.264583px;stroke-linecap:butt;stroke-linejoin:miter;stroke-opacity:1"
       d="m 126.4931,23.800879 c 0.62108,0.336962 1.08043,1.011366 1.8158,1.093461 0.42843,0.04783 0.94358,-1.07287 1.40588,-1.340705 0.51104,-0.296073 1.17481,0.202737 1.66916,0.270521 1.28684,0.176449 2.06431,-0.427745 2.95296,-1.316395 0.50069,-0.500686 0.97918,0.701796 2.18744,0.395436 0.57304,-0.145297 1.46635,-0.603057 2.09615,-0.445609 0.83513,0.208782 0.99872,0.944269 2.20451,0.866131 0.8368,-0.05423 1.61838,-0.811303 2.37623,-0.811303 0.29638,0 0.88351,0.687991 1.25898,0.795268 0.93553,0.267293 1.74415,-0.382266 2.61339,-0.490868 0.69844,-0.08726 1.32071,0.442421 1.99192,0.597162 0.76007,0.175227 1.97315,-0.300684 2.07571,-0.259658 0.32458,0.129828 0.59543,0.476618 0.99105,0.397246 0.73982,-0.148428 1.1892,-1.101403 1.85252,-1.323377 0.16413,-0.05493 0.55321,0.348357 0.20334,0.532726"
       id="path12" />
    <path
       style="fill:none;stroke:#000000;stroke-width:0.264583px;stroke-linecap:butt;stroke-linejoin:miter;stroke-opacity:1"
       d="m 126.9054,27.882479 c 1.25364,-0.134731 -0.2918,0.01151 1.76195,-0.05922 1.68891,-0.05817 0.4303,-0.04104 2.03563,-0.303625 1.34085,-0.219327 1.96078,0.312047 3.53771,-0.211556 0.0626,-0.02077 0.74148,0.546852 1.32183,0.391041 0.74932,-0.201176 1.46234,-0.971436 2.19675,-1.129927 0.1666,-0.03595 0.21856,0.26162 0.32509,0.394658 0.33967,0.424177 0.68977,0.607885 1.21786,0.741992 0.5489,0.139393 1.15172,-0.682336 1.59493,-0.531212 0.28287,0.09645 0.39379,0.421847 0.72234,0.462677 0.69986,0.08697 1.09165,-0.263451 1.73485,-0.334917 0.512,-0.05689 0.97457,0.158432 1.48217,0.200691 0.58254,0.0485 1.66239,-0.05345 2.24925,-0.132416 0.79644,-0.107164 1.50732,-0.661873 2.24485,-0.948113 0.16966,-0.06585 0.36689,-0.213803 0.52966,-0.132415 0.26709,0.133545 0.41643,0.645365 0.59587,0.860699 0.22073,0.264875 1.14131,0.863857 1.45657,0.926907 0.7056,0.141121 1.17618,-0.452689 1.52278,-0.463452 0.13343,-0.0042 0.60736,0.384313 0.19236,0.384313"
       id="path13" />
    <path
       style="fill:none;stroke:#000000;stroke-width:0.465;stroke-linecap:butt;stroke-linejoin:miter;stroke-dasharray:none;stroke-opacity:1;marker-end:url(#ArrowTriangleStylized-5-4)"
       d="m 160.76617,21.224212 h 13.6424"
       id="path6-2-6" />
    <text
       xml:space="preserve"
       style="font-size:7.05556px;line-height:1.25;font-family:'Veteran Typewriter';-inkscape-font-specification:'Veteran Typewriter';stroke-width:0.264583"
       x="163.3053"
       y="18.018944"
       id="text7-9-5"><tspan
         sodipodi:role="line"
         id="tspan7-4-9"
         style="font-style:normal;font-variant:normal;font-weight:normal;font-stretch:normal;font-family:'Latin Modern Sans';-inkscape-font-specification:'Latin Modern Sans';stroke-width:0.264583"
         x="163.3053"
         y="18.018944">avg</tspan></text>
    <path
       style="fill:none;stroke:#000000;stroke-width:0.264583px;stroke-linecap:butt;stroke-linejoin:miter;stroke-opacity:1"
       d="m 206.89295,20.562615 c -0.94837,0.316383 -1.87653,0.701399 -2.8451,0.949149 -1.59283,0.407432 -2.31127,-1.072746 -3.94685,-0.700871 -0.49673,0.112939 -1.05065,0.675322 -1.54192,0.885787 -0.0414,0.01775 -1.68028,-0.64756 -2.06149,-0.632594 -0.77282,0.03034 -1.66513,0.07401 -2.4008,0.410694 -0.13487,0.06173 -0.51924,0.404229 -0.73889,0.404229 -0.10859,0 -1.37651,-0.49579 -1.85847,-0.530178 -1.11725,-0.07972 -2.27963,0.208112 -3.37969,0.0706 -0.32158,-0.0402 -2.4834,-0.294589 -2.65426,-0.264831 -0.35906,0.06254 -1.39477,0.578929 -1.44053,0.548541 -0.30498,-0.202519 -0.56645,-0.542959 -0.93001,-0.664146 -0.37779,-0.125929 -0.62493,0.16338 -0.92691,0.264831 -0.16213,0.05447 -2.45148,-0.203059 -2.50684,-0.204869"
       id="path11-3" />
    <path
       style="fill:none;stroke:#000000;stroke-width:0.465;stroke-linecap:butt;stroke-linejoin:miter;stroke-dasharray:none;stroke-opacity:1;marker-end:url(#ArrowTriangleStylized-5-4-3)"
       d="m 193.29344,24.55605 v 13.6424"
       id="path6-2-6-3" />
    <path
       style="fill:none;stroke:#000000;stroke-width:0.465;stroke-linecap:butt;stroke-linejoin:miter;stroke-dasharray:none;stroke-opacity:1;marker-end:url(#ArrowTriangleStylized-7)"
       d="M 48.537844,68.811463 H 62.180242"
       id="path6-8" />
    <text
       xml:space="preserve"
       style="font-size:7.05556px;line-height:1.25;font-family:'Veteran Typewriter';-inkscape-font-specification:'Veteran Typewriter';stroke-width:0.264583"
       x="49.912811"
       y="65.964401"
       id="text7-5"><tspan
         sodipodi:role="line"
         id="tspan7-8"
         style="font-style:normal;font-variant:normal;font-weight:normal;font-stretch:normal;font-family:'Latin Modern Sans';-inkscape-font-specification:'Latin Modern Sans';stroke-width:0.264583"
         x="49.912811"
         y="65.964401"><tspan
   style="font-style:normal;font-variant:normal;font-weight:normal;font-stretch:normal;font-size:4.58611px;font-family:'Latin Modern Sans';-inkscape-font-specification:'Latin Modern Sans'"
   id="tspan8-4">x</tspan>100</tspan></text>
    <path
       style="fill:none;stroke:#000000;stroke-width:0.465;stroke-linecap:butt;stroke-linejoin:miter;stroke-dasharray:none;stroke-opacity:1;marker-end:url(#ArrowTriangleStylized-5-1)"
       d="m 104.88263,68.811463 h 13.6424"
       id="path6-2-3" />
    <text
       xml:space="preserve"
       style="font-size:7.05556px;line-height:1.25;font-family:'Veteran Typewriter';-inkscape-font-specification:'Veteran Typewriter';stroke-width:0.264583"
       x="105.02993"
       y="65.823296"
       id="text7-9-8"><tspan
         sodipodi:role="line"
         id="tspan7-4-0"
         style="font-style:normal;font-variant:normal;font-weight:normal;font-stretch:normal;font-family:'Latin Modern Sans';-inkscape-font-specification:'Latin Modern Sans';stroke-width:0.264583"
         x="105.02993"
         y="65.823296">trace</tspan></text>
    <rect
       style="fill:none;fill-opacity:1;stroke:#000000;stroke-width:0.465;stroke-linecap:square;stroke-dasharray:none;stroke-opacity:1;paint-order:stroke fill markers"
       id="rect9-7-9"
       width="31.953686"
       height="21.726229"
       x="124.84196"
       y="57.948349" />
    <path
       style="fill:none;stroke:#000000;stroke-width:0.264583px;stroke-linecap:butt;stroke-linejoin:miter;stroke-opacity:1"
       d="m 127.55617,60.743955 c 0.79417,-0.445888 0.3545,-0.273982 1.24812,-0.473281 0.25606,-0.05711 0.49653,-0.202682 0.7588,-0.208968 0.14275,-0.0034 0.7596,0.953453 1.52511,0.783888 0.4766,-0.10557 0.84082,-0.565953 1.28329,-0.743284 0.19354,-0.07757 0.77776,0.374699 0.93802,0.402936 0.3786,0.0667 0.76594,0.08126 1.15036,0.08198 0.80571,0.0015 1.61221,-0.288237 2.41865,-0.221382 0.54725,0.04537 1.02482,0.394461 1.58071,0.498368 1.54959,0.289652 2.67199,0.0067 4.1597,-0.265606 0.63753,-0.116705 1.31745,0.271915 1.97511,0.206123 0.77076,-0.07711 1.7249,0.146926 2.45486,-0.06595 0.14106,-0.04114 1.3809,-0.783474 1.61407,-0.725181 0.45289,0.113222 0.58515,0.541878 1.1307,0.596645 0.37293,0.03744 0.63864,-0.08178 0.99312,-0.132415 0.68511,-0.09787 1.43124,0.119491 2.1383,0.06621 0.31306,-0.02359 0.82895,-0.324146 1.12553,-0.26483 0.51746,0.103492 0.67974,0.596386 1.25769,0.596386"
       id="path9-7" />
    <path
       style="fill:none;stroke:#000000;stroke-width:0.264583px;stroke-linecap:butt;stroke-linejoin:miter;stroke-opacity:1"
       d="m 127.4914,63.847734 c 0.90081,0.724013 1.61492,-1.431393 2.14152,-1.290051 0.22794,0.06118 0.68147,1.175362 1.37536,1.375878 0.96407,0.27859 2.87679,-0.627298 2.97443,-0.568713 0.45466,0.272792 0.52933,0.879698 1.13484,1.065012 0.3735,0.114308 0.97331,0.146378 1.3583,0.06905 0.3878,-0.07789 0.66876,-0.399524 1.06475,-0.465523 0.63754,-0.106256 1.34572,0.126756 1.9795,0 0.28641,-0.05728 0.57533,-0.299317 0.8607,-0.397246 0.0425,-0.01458 1.01759,0.0941 1.70407,-0.138364 0.0175,-0.0059 0.62078,0.887096 1.12812,0.99984 0.35247,0.07833 0.43651,-0.413795 0.65665,-0.331039 0.27844,0.104674 0.5364,0.362725 0.84156,0.39647 0.50033,0.05533 0.95283,-0.111012 1.39864,-0.200174 0.66258,-0.132517 1.84226,0.132415 2.5821,0.132415 0.5115,0 0.66034,-0.130287 0.99156,-0.463454 0.19526,-0.196409 0.87605,0.237296 1.15372,0.132416 0.31146,-0.117644 0.68946,-0.394407 1.0601,-0.26871 0.23883,0.081 0.40952,0.279907 0.6613,0.330262 0.41137,0.08227 0.53913,-0.264831 0.8607,-0.264831 0.0678,0 0.52311,0.145828 0.52656,0.132416 0.0204,-0.07931 0,-0.163771 0,-0.245657"
       id="path10-9" />
    <path
       style="fill:none;stroke:#000000;stroke-width:0.264583px;stroke-linecap:butt;stroke-linejoin:miter;stroke-opacity:1"
       d="m 127.40852,67.811106 c 0.94837,-0.316383 1.87653,-0.701399 2.8451,-0.949149 1.59283,-0.407432 2.31127,1.072746 3.94685,0.700871 0.49673,-0.112939 1.05065,-0.675322 1.54192,-0.885787 0.0414,-0.01775 1.68028,0.64756 2.06149,0.632594 0.77282,-0.03034 1.66513,-0.07401 2.4008,-0.410694 0.13487,-0.06173 0.51924,-0.404229 0.73889,-0.404229 0.10859,0 1.37651,0.49579 1.85847,0.530178 1.11725,0.07972 2.27963,-0.208112 3.37969,-0.0706 0.32158,0.0402 2.4834,0.294589 2.65426,0.264831 0.35906,-0.06254 1.39477,-0.578929 1.44053,-0.548541 0.30498,0.202519 0.56645,0.542959 0.93001,0.664146 0.37779,0.125929 0.62493,-0.16338 0.92691,-0.264831 0.16213,-0.05447 2.45148,0.203059 2.50684,0.204869"
       id="path11-9" />
    <path
       style="fill:none;stroke:#000000;stroke-width:0.264583px;stroke-linecap:butt;stroke-linejoin:miter;stroke-opacity:1"
       d="m 126.95435,71.38813 c 0.62108,0.336962 1.08043,1.011366 1.8158,1.093461 0.42843,0.04783 0.94358,-1.07287 1.40588,-1.340705 0.51104,-0.296073 1.17481,0.202737 1.66916,0.270521 1.28684,0.176449 2.06431,-0.427745 2.95296,-1.316395 0.50069,-0.500686 0.97918,0.701796 2.18744,0.395436 0.57304,-0.145297 1.46635,-0.603057 2.09615,-0.445609 0.83513,0.208782 0.99872,0.944269 2.20451,0.866131 0.8368,-0.05423 1.61838,-0.811303 2.37623,-0.811303 0.29638,0 0.88351,0.687991 1.25898,0.795268 0.93553,0.267293 1.74415,-0.382266 2.61339,-0.490868 0.69844,-0.08726 1.32071,0.442421 1.99192,0.597162 0.76007,0.175227 1.97315,-0.300684 2.07571,-0.259658 0.32458,0.129828 0.59543,0.476618 0.99105,0.397246 0.73982,-0.148428 1.1892,-1.101403 1.85252,-1.323377 0.16413,-0.05493 0.55321,0.348357 0.20334,0.532726"
       id="path12-3" />
    <path
       style="fill:none;stroke:#000000;stroke-width:0.264583px;stroke-linecap:butt;stroke-linejoin:miter;stroke-opacity:1"
       d="m 127.36665,75.46973 c 1.25364,-0.134731 -0.2918,0.01151 1.76195,-0.05922 1.68891,-0.05817 0.4303,-0.04104 2.03563,-0.303625 1.34085,-0.219327 1.96078,0.312047 3.53771,-0.211556 0.0626,-0.02077 0.74148,0.546852 1.32183,0.391041 0.74932,-0.201176 1.46234,-0.971436 2.19675,-1.129927 0.1666,-0.03595 0.21856,0.26162 0.32509,0.394658 0.33967,0.424177 0.68977,0.607885 1.21786,0.741992 0.5489,0.139393 1.15172,-0.682336 1.59493,-0.531212 0.28287,0.09645 0.39379,0.421847 0.72234,0.462677 0.69986,0.08697 1.09165,-0.263451 1.73485,-0.334917 0.512,-0.05689 0.97457,0.158432 1.48217,0.200691 0.58254,0.0485 1.66239,-0.05345 2.24925,-0.132416 0.79644,-0.107164 1.50732,-0.661873 2.24485,-0.948113 0.16966,-0.06585 0.36689,-0.213803 0.52966,-0.132415 0.26709,0.133545 0.41643,0.645365 0.59587,0.860699 0.22073,0.264875 1.14131,0.863857 1.45657,0.926907 0.7056,0.141121 1.17618,-0.452689 1.52278,-0.463452 0.13343,-0.0042 0.60736,0.384313 0.19236,0.384313"
       id="path13-2" />
    <path
       style="fill:none;stroke:#000000;stroke-width:0.465;stroke-linecap:butt;stroke-linejoin:miter;stroke-dasharray:none;stroke-opacity:1;marker-end:url(#ArrowTriangleStylized-5-4-0)"
       d="m 161.22742,68.811463 h 13.6424"
       id="path6-2-6-4" />
    <text
       xml:space="preserve"
       style="font-size:7.05556px;line-height:1.25;font-family:'Veteran Typewriter';-inkscape-font-specification:'Veteran Typewriter';stroke-width:0.264583"
       x="163.76656"
       y="65.606194"
       id="text7-9-5-3"><tspan
         sodipodi:role="line"
         id="tspan7-4-9-7"
         style="font-style:normal;font-variant:normal;font-weight:normal;font-stretch:normal;font-family:'Latin Modern Sans';-inkscape-font-specification:'Latin Modern Sans';stroke-width:0.264583"
         x="163.76656"
         y="65.606194">avg</tspan></text>
    <path
       style="fill:none;stroke:#000000;stroke-width:0.264583px;stroke-linecap:butt;stroke-linejoin:miter;stroke-opacity:1"
       d="m 207.3542,68.149866 c -0.94837,0.316383 -1.87653,0.701399 -2.8451,0.949149 -1.59283,0.407432 -2.31127,-1.072746 -3.94685,-0.700871 -0.49673,0.112939 -1.05065,0.675322 -1.54192,0.885787 -0.0414,0.01775 -1.68028,-0.64756 -2.06149,-0.632594 -0.77282,0.03034 -1.66513,0.07401 -2.4008,0.410694 -0.13487,0.06173 -0.51924,0.404229 -0.73889,0.404229 -0.10859,0 -1.37651,-0.49579 -1.85847,-0.530178 -1.11725,-0.07972 -2.27963,0.208112 -3.37969,0.0706 -0.32158,-0.0402 -2.4834,-0.294589 -2.65426,-0.264831 -0.35906,0.06254 -1.39477,0.578929 -1.44053,0.548541 -0.30498,-0.202519 -0.56645,-0.542959 -0.93001,-0.664146 -0.37779,-0.125929 -0.62493,0.16338 -0.92691,0.264831 -0.16213,0.05447 -2.45148,-0.203059 -2.50684,-0.204869"
       id="path11-3-1" />
    <path
       style="fill:none;stroke:#000000;stroke-width:0.465;stroke-linecap:butt;stroke-linejoin:miter;stroke-dasharray:none;stroke-opacity:1;marker-end:url(#ArrowTriangleStylized-5-4-3-0)"
       d="m 193.29344,66.636308 v -13.6424"
       id="path6-2-6-3-7" />
    <text
       xml:space="preserve"
       style="font-size:7.05556px;line-height:1.25;font-family:'Veteran Typewriter';-inkscape-font-specification:'Veteran Typewriter';stroke-width:0.264583"
       x="181.28134"
       y="47.52491"
       id="text7-9-5-4"><tspan
         sodipodi:role="line"
         id="tspan7-4-9-1"
         style="font-style:normal;font-variant:normal;font-weight:normal;font-stretch:normal;font-family:'Latin Modern Sans';-inkscape-font-specification:'Latin Modern Sans';stroke-width:0.264583"
         x="181.28134"
         y="47.52491">subtract</tspan></text>
    <path
       style="fill:none;stroke:#000000;stroke-width:0.465;stroke-linecap:butt;stroke-linejoin:miter;stroke-dasharray:none;stroke-opacity:1;marker-end:url(#ArrowTriangleStylized-5-4-3-1)"
       d="m 206.84072,46.065818 h 13.6424"
       id="path6-2-6-3-0" />
    <text
       xml:space="preserve"
       style="font-size:7.05556px;line-height:1.25;font-family:'Veteran Typewriter';-inkscape-font-specification:'Veteran Typewriter';stroke-width:0.264583"
       x="224.04422"
       y="47.52491"
       id="text7-9-5-4-5"><tspan
         sodipodi:role="line"
         id="tspan7-4-9-1-1"
         style="font-style:normal;font-variant:normal;font-weight:normal;font-stretch:normal;font-family:'Latin Modern Sans';-inkscape-font-specification:'Latin Modern Sans';stroke-width:0.264583"
         x="224.04422"
         y="47.52491">DoM trace</tspan></text>
    <path
       style="fill:none;stroke:#000000;stroke-width:0.465;stroke-linecap:butt;stroke-linejoin:miter;stroke-dasharray:none;stroke-opacity:1;marker-end:url(#ArrowTriangleStylized-5-4-3-1-2)"
       d="m 255.76111,42.463949 9.64663,-9.646634"
       id="path6-2-6-3-0-6" />
    <path
       style="fill:none;stroke:#000000;stroke-width:0.465;stroke-linecap:butt;stroke-linejoin:miter;stroke-dasharray:none;stroke-opacity:1;marker-end:url(#ArrowTriangleStylized-5-4-3-1-2-0)"
       d="m 255.76111,48.592967 9.64663,9.64663"
       id="path6-2-6-3-0-6-0" />
    <text
       xml:space="preserve"
       style="font-size:7.05556px;line-height:1.25;font-family:'Veteran Typewriter';-inkscape-font-specification:'Veteran Typewriter';stroke-width:0.264583"
       x="253.0459"
       y="30.115532"
       id="text7-9-5-4-7"><tspan
         sodipodi:role="line"
         id="tspan7-4-9-1-5"
         style="font-style:normal;font-variant:normal;font-weight:normal;font-stretch:normal;font-family:'Latin Modern Sans';-inkscape-font-specification:'Latin Modern Sans';stroke-width:0.264583"
         x="253.0459"
         y="30.115532">peak</tspan></text>
    <text
       xml:space="preserve"
       style="font-size:7.05556px;line-height:1.25;font-family:'Veteran Typewriter';-inkscape-font-specification:'Veteran Typewriter';stroke-width:0.264583"
       x="243.70103"
       y="65.295204"
       id="text7-9-5-4-3"><tspan
         sodipodi:role="line"
         id="tspan7-4-9-1-7"
         style="font-style:normal;font-variant:normal;font-weight:normal;font-stretch:normal;font-family:'Latin Modern Sans';-inkscape-font-specification:'Latin Modern Sans';stroke-width:0.264583"
         x="243.70103"
         y="65.295204">no peak</tspan></text>
    <path
       style="fill:none;stroke:#000000;stroke-width:0.264583px;stroke-linecap:butt;stroke-linejoin:miter;stroke-opacity:1"
       d="m 269.31096,63.531313 c 1.37782,0.149431 4.9022,-0.939171 5.96609,-0.548217 0.69919,0.256926 1.09442,0.481486 1.82435,0.480962 2.25732,-0.0016 4.74353,-0.488204 6.98839,-0.284919 0.9897,0.08962 2.11566,0.757798 3.0957,0.56179 0.82587,-0.165174 2.12416,-0.776314 2.97974,-0.56179 0.34883,0.08746 0.94054,0.470829 1.30355,0.374526 1.17779,-0.312449 1.58062,-0.355317 2.75701,-0.187262 0.48152,0.06879 0.76219,-0.22602 1.20113,-0.372332 1.55215,-0.517385 2.4366,-0.04792 3.72039,0.593976 0.4047,0.202346 0.978,-0.604073 0.978,-0.05673"
       id="path14" />
    <path
       style="fill:none;stroke:#000000;stroke-width:0.264583px;stroke-linecap:butt;stroke-linejoin:miter;stroke-opacity:1"
       d="m 269.2967,28.351641 c 0.90834,-0.179948 2.20826,0.499795 3.05326,0.161795 0.50877,-0.203509 0.7888,-0.734964 1.21796,-1.030681 0.10832,-0.07465 0.81396,0.944014 0.92607,1.019344 0.1452,0.09756 1.48037,0.12401 1.52884,0.09253 0.19457,-0.126373 0.12972,-0.445641 0.18724,-0.670417 0.4277,-1.670619 0.0848,-0.305211 0.28128,-1.031047 0.11571,-0.427382 0.10367,-0.194329 0.18944,-1.136749 0.0703,-0.771737 0.18839,-1.471287 0.18839,-2.254477 0,-0.381606 0.10839,0.810064 0.17106,1.18649 0.13697,0.82263 0.17607,1.412747 0.17607,2.230309 0,2.420866 0.18079,1.881443 2.30965,1.881443 1.15782,0 2.18091,-0.182166 3.24859,-0.449871 1.73685,-0.435491 3.6396,0.627742 5.20059,-0.189458 0.36097,-0.188976 2.82988,-0.179572 3.11764,0 0.38939,0.242978 0.59132,0.612344 1.11773,0.461942 0.45054,-0.128728 0.77952,-0.468802 1.04238,-0.75637 0.27612,-0.302064 1.81475,0.235566 2.10378,0.364286 0.6935,0.308814 2.11566,-0.478112 2.99368,0.120928"
       id="path15"
       sodipodi:nodetypes="csssscscssssssssssc" />
    <text
       xml:space="preserve"
       style="font-size:7.05556px;line-height:1.25;font-family:'Veteran Typewriter';-inkscape-font-specification:'Veteran Typewriter';stroke-width:0.264583"
       x="281.56195"
       y="23.77519"
       id="text7-9-5-4-7-6"><tspan
         sodipodi:role="line"
         id="tspan7-4-9-1-5-0"
         style="font-style:normal;font-variant:normal;font-weight:normal;font-stretch:normal;font-family:'Latin Modern Sans';-inkscape-font-specification:'Latin Modern Sans';stroke-width:0.264583"
         x="281.56195"
         y="23.77519">yes <tspan
   style="font-style:normal;font-variant:normal;font-weight:normal;font-stretch:normal;font-family:'Latin Modern Roman';-inkscape-font-specification:'Latin Modern Roman, '"
   id="tspan15">[<tspan
   style="font-style:italic"
   id="tspan16">r</tspan>]</tspan></tspan></text>
    <text
       xml:space="preserve"
       style="font-size:7.05556px;line-height:1.25;font-family:'Veteran Typewriter';-inkscape-font-specification:'Veteran Typewriter';stroke-width:0.264583"
       x="283.27646"
       y="59.567238"
       id="text7-9-5-4-7-6-1"><tspan
         sodipodi:role="line"
         id="tspan7-4-9-1-5-0-5"
         style="font-style:normal;font-variant:normal;font-weight:normal;font-stretch:normal;font-family:'Latin Modern Sans';-inkscape-font-specification:'Latin Modern Sans';stroke-width:0.264583"
         x="283.27646"
         y="59.567238">no <tspan
   style="font-style:normal;font-variant:normal;font-weight:normal;font-stretch:normal;font-family:'Latin Modern Roman';-inkscape-font-specification:'Latin Modern Roman, '"
   id="tspan15-5">[<tspan
   style="font-style:italic"
   id="tspan16-4">r</tspan>]</tspan></tspan></text>
    <text
       xml:space="preserve"
       style="font-size:9.87778px;line-height:1.25;font-family:'Latin Modern Sans';-inkscape-font-specification:'Latin Modern Sans';stroke-width:0.264583"
       x="62.086983"
       y="-2.7834902"
       id="text10"><tspan
         sodipodi:role="line"
         id="tspan10"
         style="font-size:9.87778px;stroke-width:0.264583"
         x="62.086983"
         y="-2.7834902">The &quot;is <tspan
   style="font-style:normal;font-variant:normal;font-weight:normal;font-stretch:normal;font-size:9.87778px;font-family:'Latin Modern Roman';-inkscape-font-specification:'Latin Modern Roman, '"
   id="tspan11">[<tspan
   style="font-style:italic;font-size:9.87778px"
   id="tspan13">r</tspan>]<tspan
   style="font-style:italic;font-size:9.87778px"
   id="tspan12">P</tspan></tspan> computed while doing <tspan
   style="font-style:normal;font-variant:normal;font-weight:normal;font-stretch:normal;font-size:9.87778px;font-family:'Latin Modern Roman';-inkscape-font-specification:'Latin Modern Roman, '"
   id="tspan14">[<tspan
   style="font-style:italic;font-size:9.87778px"
   id="tspan19">k</tspan>]<tspan
   style="font-style:italic;font-size:9.87778px;letter-spacing:0.592667px"
   id="tspan20">P</tspan></tspan><tspan
   style="letter-spacing:0.592667px"
   id="tspan21">?</tspan>&quot; box</tspan></text>
    <rect
       style="fill:none;stroke:#000000;stroke-width:0.465;stroke-linecap:square;stroke-dasharray:0.11625, 0.11625;paint-order:stroke fill markers"
       id="rect21"
       width="295.21799"
       height="79.264603"
       x="7.8280125"
       y="3.7309601" />
    <text
       xml:space="preserve"
       style="font-size:7.05556px;line-height:1.25;font-family:'Latin Modern Sans';-inkscape-font-specification:'Latin Modern Sans';stroke-width:0.264583"
       x="77.898232"
       y="18.883251"
       id="text22"><tspan
         sodipodi:role="line"
         id="tspan22"
         style="font-style:normal;font-variant:normal;font-weight:normal;font-stretch:normal;font-family:'Latin Modern Roman';-inkscape-font-specification:'Latin Modern Roman, ';fill:#ffffff;fill-opacity:1;stroke-width:0.264583"
         x="77.898232"
         y="18.883251">[<tspan
   style="font-style:italic"
   id="tspan23">k</tspan>]<tspan
   style="font-style:italic"
   id="tspan24">P</tspan></tspan></text>
    <rect
       style="fill:#000000;fill-opacity:1;stroke:#000000;stroke-width:0.465;stroke-linecap:square;stroke-dasharray:none;stroke-opacity:1;paint-order:stroke fill markers"
       id="rect9-6"
       width="31.953686"
       height="21.726229"
       x="68.035919"
       y="57.948349" />
    <text
       xml:space="preserve"
       style="font-size:7.05556px;line-height:1.25;font-family:'Veteran Typewriter';-inkscape-font-specification:'Veteran Typewriter';stroke-width:0.264583"
       x="74.470108"
       y="75.598656"
       id="text9-2"><tspan
         sodipodi:role="line"
         id="tspan9-6"
         style="font-style:normal;font-variant:normal;font-weight:normal;font-stretch:normal;font-family:'Latin Modern Sans';-inkscape-font-specification:'Latin Modern Sans';fill:#ffffff;fill-opacity:1;stroke-width:0.264583"
         x="74.470108"
         y="75.598656">Target</tspan></text>
    <text
       xml:space="preserve"
       style="font-size:7.05556px;line-height:1.25;font-family:'Latin Modern Sans';-inkscape-font-specification:'Latin Modern Sans';stroke-width:0.264583"
       x="77.898232"
       y="66.470505"
       id="text22-7"><tspan
         sodipodi:role="line"
         id="tspan22-5"
         style="font-style:normal;font-variant:normal;font-weight:normal;font-stretch:normal;font-family:'Latin Modern Roman';-inkscape-font-specification:'Latin Modern Roman, ';fill:#ffffff;fill-opacity:1;stroke-width:0.264583"
         x="77.898232"
         y="66.470505">[<tspan
   style="font-style:italic"
   id="tspan23-6">k</tspan>]<tspan
   style="font-style:italic"
   id="tspan24-9">P</tspan></tspan></text>
  </g>
</svg>
